<mxfile host="app.diagrams.net" agent="Mozilla/5.0 (Windows NT 10.0; Win64; x64) AppleWebKit/537.36 (KHTML, like Gecko) Chrome/134.0.0.0 Safari/537.36 Edg/134.0.0.0" version="26.1.1">
  <diagram name="第 1 页" id="Ybd84z9JuhHgILU-HEZB">
    <mxGraphModel dx="1213" dy="815" grid="1" gridSize="10" guides="1" tooltips="1" connect="1" arrows="1" fold="1" page="1" pageScale="1" pageWidth="827" pageHeight="1169" math="0" shadow="0">
      <root>
        <mxCell id="0" />
        <mxCell id="1" parent="0" />
        <mxCell id="5e16mKItXA9mVnA2ni1b-26" value="" style="rounded=1;whiteSpace=wrap;html=1;fillColor=none;strokeColor=#d6b656;dashed=1;dashPattern=8 8;strokeWidth=2;" vertex="1" parent="1">
          <mxGeometry x="60" y="90" width="760" height="90" as="geometry" />
        </mxCell>
        <mxCell id="5e16mKItXA9mVnA2ni1b-31" value="&lt;font style=&quot;font-size: 14px;&quot;&gt;&lt;b&gt;用户意图&lt;/b&gt;&lt;/font&gt;" style="html=1;verticalLabelPosition=bottom;align=center;labelBackgroundColor=#ffffff;verticalAlign=top;strokeWidth=2;strokeColor=#0080F0;shadow=0;dashed=0;shape=mxgraph.ios7.icons.lightbulb;aspect=fixed;" vertex="1" parent="1">
          <mxGeometry x="90" y="105.15" width="23.03" height="30" as="geometry" />
        </mxCell>
        <mxCell id="5e16mKItXA9mVnA2ni1b-32" value="&lt;font style=&quot;font-size: 14px;&quot;&gt;&lt;b&gt;预测目标&lt;/b&gt;&lt;/font&gt;" style="html=1;verticalLabelPosition=bottom;align=center;labelBackgroundColor=#ffffff;verticalAlign=top;strokeWidth=2;strokeColor=#0080F0;shadow=0;dashed=0;shape=mxgraph.ios7.icons.location;" vertex="1" parent="1">
          <mxGeometry x="340" y="105.15" width="24" height="30" as="geometry" />
        </mxCell>
        <mxCell id="5e16mKItXA9mVnA2ni1b-33" value="&lt;font style=&quot;font-size: 14px;&quot;&gt;&lt;b style=&quot;&quot;&gt;环境物体&lt;/b&gt;&lt;/font&gt;" style="html=1;verticalLabelPosition=bottom;align=center;labelBackgroundColor=#ffffff;verticalAlign=top;strokeWidth=2;strokeColor=#0080F0;shadow=0;dashed=0;shape=mxgraph.ios7.icons.home;aspect=fixed;" vertex="1" parent="1">
          <mxGeometry x="540" y="105.15" width="28.24" height="30" as="geometry" />
        </mxCell>
        <mxCell id="5e16mKItXA9mVnA2ni1b-36" value="" style="rounded=1;arcSize=5;whiteSpace=wrap;html=1;fillColor=light-dark(#deebf7, #1d293b);strokeColor=light-dark(#2a77bc, #5c79a3);" vertex="1" parent="1">
          <mxGeometry x="60" y="200" width="760" height="200" as="geometry" />
        </mxCell>
        <mxCell id="5e16mKItXA9mVnA2ni1b-37" value="" style="rounded=1;arcSize=5;whiteSpace=wrap;html=1;fillColor=#d5e8d4;strokeColor=light-dark(#517f31, #446e2c);" vertex="1" parent="1">
          <mxGeometry x="60" y="420" width="760" height="200" as="geometry" />
        </mxCell>
        <mxCell id="5e16mKItXA9mVnA2ni1b-39" value="&lt;font face=&quot;Times New Roman&quot;&gt;&lt;span style=&quot;font-size: 15px;&quot;&gt;目标匹配阶段&lt;/span&gt;&lt;/font&gt;" style="text;html=1;align=center;verticalAlign=middle;resizable=0;points=[];autosize=1;strokeColor=none;fillColor=none;fontColor=light-dark(#1c4c77, #a1cdf9);fontStyle=1" vertex="1" parent="1">
          <mxGeometry x="70" y="210" width="110" height="30" as="geometry" />
        </mxCell>
        <mxCell id="5e16mKItXA9mVnA2ni1b-40" value="&lt;font style=&quot;font-size: 15px;&quot; face=&quot;Times New Roman&quot;&gt;任务分解阶段&lt;/font&gt;" style="text;html=1;align=center;verticalAlign=middle;resizable=0;points=[];autosize=1;strokeColor=none;fillColor=none;fontColor=light-dark(#548235, #69c195);fontStyle=1" vertex="1" parent="1">
          <mxGeometry x="70" y="430" width="110" height="30" as="geometry" />
        </mxCell>
        <mxCell id="5e16mKItXA9mVnA2ni1b-41" value="&lt;font face=&quot;Times New Roman&quot;&gt;&lt;span style=&quot;font-size: 15px;&quot;&gt;动作映射阶段&lt;/span&gt;&lt;/font&gt;" style="text;html=1;align=center;verticalAlign=middle;resizable=0;points=[];autosize=1;strokeColor=none;fillColor=none;fontColor=light-dark(#7f6105, #69c195);fontStyle=1" vertex="1" parent="1">
          <mxGeometry x="70" y="680" width="110" height="30" as="geometry" />
        </mxCell>
        <mxCell id="5e16mKItXA9mVnA2ni1b-42" value="" style="rounded=1;arcSize=5;whiteSpace=wrap;html=1;fillColor=#fff2cc;strokeColor=#d6b656;" vertex="1" parent="1">
          <mxGeometry x="60" y="640" width="760" height="200" as="geometry" />
        </mxCell>
        <mxCell id="5e16mKItXA9mVnA2ni1b-43" value="&lt;font face=&quot;Times New Roman&quot;&gt;&lt;span style=&quot;font-size: 15px;&quot;&gt;动作映射阶段&lt;/span&gt;&lt;/font&gt;" style="text;html=1;align=center;verticalAlign=middle;resizable=0;points=[];autosize=1;strokeColor=none;fillColor=none;fontColor=light-dark(#7f6105, #69c195);fontStyle=1" vertex="1" parent="1">
          <mxGeometry x="70" y="650" width="110" height="30" as="geometry" />
        </mxCell>
        <mxCell id="5e16mKItXA9mVnA2ni1b-44" value="" style="group" vertex="1" connectable="0" parent="1">
          <mxGeometry x="450" y="252.31" width="99.90045897877224" height="120.37013422818792" as="geometry" />
        </mxCell>
        <mxCell id="5e16mKItXA9mVnA2ni1b-45" value="" style="group" vertex="1" connectable="0" parent="5e16mKItXA9mVnA2ni1b-44">
          <mxGeometry width="99.90045897877224" height="120.37013422818792" as="geometry" />
        </mxCell>
        <mxCell id="5e16mKItXA9mVnA2ni1b-46" value="" style="group;fontStyle=0;strokeWidth=2;" vertex="1" connectable="0" parent="5e16mKItXA9mVnA2ni1b-45">
          <mxGeometry width="99.90045897877224" height="120.37013422818792" as="geometry" />
        </mxCell>
        <mxCell id="5e16mKItXA9mVnA2ni1b-47" value="&lt;b&gt;&lt;font face=&quot;Times New Roman&quot;&gt;大语言模型&lt;/font&gt;&lt;/b&gt;&lt;div&gt;&lt;b&gt;&lt;font face=&quot;Times New Roman&quot;&gt;GPT-4o-mini&lt;/font&gt;&lt;/b&gt;&lt;/div&gt;" style="text;html=1;align=center;verticalAlign=middle;resizable=0;points=[];autosize=1;strokeColor=none;fillColor=none;" vertex="1" parent="5e16mKItXA9mVnA2ni1b-46">
          <mxGeometry x="-1.6295410212277694" y="80.37013422818792" width="90" height="40" as="geometry" />
        </mxCell>
        <mxCell id="5e16mKItXA9mVnA2ni1b-48" value="" style="shape=image;html=1;verticalAlign=top;verticalLabelPosition=bottom;labelBackgroundColor=#ffffff;imageAspect=0;aspect=fixed;image=https://cdn0.iconfinder.com/data/icons/phosphor-light-vol-1/256/brain-light-128.png;imageBackground=none;imageBorder=none;" vertex="1" parent="5e16mKItXA9mVnA2ni1b-44">
          <mxGeometry x="10.689999999999998" y="15" width="65.37" height="65.37" as="geometry" />
        </mxCell>
        <mxCell id="5e16mKItXA9mVnA2ni1b-49" value="" style="group;align=left;" vertex="1" connectable="0" parent="1">
          <mxGeometry x="90" y="240" width="115.5" height="145" as="geometry" />
        </mxCell>
        <mxCell id="5e16mKItXA9mVnA2ni1b-50" value="&lt;b&gt;&lt;font face=&quot;Times New Roman&quot;&gt;环境提示（Prompt）&lt;/font&gt;&lt;/b&gt;" style="text;html=1;align=center;verticalAlign=middle;resizable=0;points=[];autosize=1;strokeColor=none;fillColor=none;" vertex="1" parent="5e16mKItXA9mVnA2ni1b-49">
          <mxGeometry x="-15" y="110" width="130" height="30" as="geometry" />
        </mxCell>
        <mxCell id="5e16mKItXA9mVnA2ni1b-51" value="&lt;div style=&quot;color: rgb(51, 51, 51);&quot;&gt;&lt;span style=&quot;background-color: transparent; color: light-dark(rgb(51, 51, 51), rgb(193, 193, 193));&quot;&gt;&lt;font face=&quot;Times New Roman&quot;&gt;&amp;nbsp; User Intention:&lt;/font&gt;&lt;/span&gt;&lt;/div&gt;&lt;div style=&quot;color: rgb(51, 51, 51);&quot;&gt;&lt;span style=&quot;background-color: transparent; color: light-dark(rgb(51, 51, 51), rgb(193, 193, 193));&quot;&gt;&lt;font face=&quot;Times New Roman&quot;&gt;&amp;nbsp; Target:&lt;/font&gt;&lt;/span&gt;&lt;/div&gt;&lt;div style=&quot;color: rgb(51, 51, 51);&quot;&gt;&lt;font face=&quot;Times New Roman&quot;&gt;&amp;nbsp; Object List:&lt;/font&gt;&lt;/div&gt;&lt;div style=&quot;color: rgb(51, 51, 51);&quot;&gt;&lt;font face=&quot;Times New Roman&quot;&gt;&amp;nbsp; ...&lt;/font&gt;&lt;/div&gt;" style="strokeWidth=1;html=1;shape=mxgraph.flowchart.multi-document;whiteSpace=wrap;align=left;fillColor=light-dark(#e7e6e6, #ededed);" vertex="1" parent="5e16mKItXA9mVnA2ni1b-49">
          <mxGeometry x="-10" y="20" width="115.5" height="90" as="geometry" />
        </mxCell>
        <mxCell id="5e16mKItXA9mVnA2ni1b-52" value="" style="group" vertex="1" connectable="0" parent="1">
          <mxGeometry x="460" y="460" width="99.90045897877224" height="120.37013422818792" as="geometry" />
        </mxCell>
        <mxCell id="5e16mKItXA9mVnA2ni1b-53" value="" style="group" vertex="1" connectable="0" parent="5e16mKItXA9mVnA2ni1b-52">
          <mxGeometry width="99.90045897877224" height="120.37013422818792" as="geometry" />
        </mxCell>
        <mxCell id="5e16mKItXA9mVnA2ni1b-54" value="" style="group;fontStyle=0;strokeWidth=2;" vertex="1" connectable="0" parent="5e16mKItXA9mVnA2ni1b-53">
          <mxGeometry width="99.90045897877224" height="120.37013422818792" as="geometry" />
        </mxCell>
        <mxCell id="5e16mKItXA9mVnA2ni1b-55" value="&lt;b&gt;&lt;font face=&quot;Times New Roman&quot;&gt;大语言模型&lt;/font&gt;&lt;/b&gt;&lt;div&gt;&lt;b&gt;&lt;font face=&quot;Times New Roman&quot;&gt;GPT-4o-mini&lt;/font&gt;&lt;/b&gt;&lt;/div&gt;" style="text;html=1;align=center;verticalAlign=middle;resizable=0;points=[];autosize=1;strokeColor=none;fillColor=none;" vertex="1" parent="5e16mKItXA9mVnA2ni1b-54">
          <mxGeometry x="-1.6295410212277694" y="80.37013422818792" width="90" height="40" as="geometry" />
        </mxCell>
        <mxCell id="5e16mKItXA9mVnA2ni1b-56" value="" style="shape=image;html=1;verticalAlign=top;verticalLabelPosition=bottom;labelBackgroundColor=#ffffff;imageAspect=0;aspect=fixed;image=https://cdn0.iconfinder.com/data/icons/phosphor-light-vol-1/256/brain-light-128.png;imageBackground=none;imageBorder=none;" vertex="1" parent="5e16mKItXA9mVnA2ni1b-52">
          <mxGeometry x="10.689999999999998" y="15" width="65.37" height="65.37" as="geometry" />
        </mxCell>
        <mxCell id="5e16mKItXA9mVnA2ni1b-57" value="" style="shape=cross;whiteSpace=wrap;html=1;fillColor=light-dark(#2a77bc, #ededed);strokeColor=light-dark(#2a77bc, #ededed);aspect=fixed;" vertex="1" parent="1">
          <mxGeometry x="210.00000000000003" y="290" width="20" height="20" as="geometry" />
        </mxCell>
      </root>
    </mxGraphModel>
  </diagram>
</mxfile>
